<svg xmlns="http://www.w3.org/2000/svg" viewBox="0 0 409.47 338.21"><defs><style>.ae9f613d-4fbe-41b0-a71a-d38f7cca195a{fill:#fbd10d;}</style></defs><g id="a38ee9af-de32-438a-a795-348be071232a" data-name="graphics"><path class="ae9f613d-4fbe-41b0-a71a-d38f7cca195a" d="M290.33,181.12c-2.08,3,.71,6,3.93,5.93a25.8,25.8,0,0,1,7.11.88,24.21,24.21,0,0,1,6.47,2.77c2.63,1.63,6.8.56,7-3,.39-6.41-3-12-8.71-13.56S294.07,175.62,290.33,181.12Z" transform="translate(-216.21 -114.36)"/><path class="ae9f613d-4fbe-41b0-a71a-d38f7cca195a" d="M530.83,192.62A25.93,25.93,0,0,1,545,192c3.1.75,6.62-1.5,5.46-4.9-2.09-6.15-7.41-10.43-13.39-10.18s-10.81,5-12.23,11.27C524.08,191.69,527.83,193.63,530.83,192.62Z" transform="translate(-216.21 -114.36)"/><path class="ae9f613d-4fbe-41b0-a71a-d38f7cca195a" d="M620.45,438.6a26.61,26.61,0,0,0,5.23-15.71c0-15.66-13.84-29.84-38.23-31.28a7.41,7.41,0,0,0-1.05-.17C553.79,362,538.84,290.65,547.71,247.79c29.67-2,50.54-17.39,58.33-43.6,3.45-11.59-2.67-20.51-15.32-22.63-6.2-1-10.32-4.29-12.6-9.92-.07-.18-.15-.35-.24-.53-12-23.36-32.69-26.26-46.43-27.33,0,0,0-.13,0-.13-5,.25-11.12.23-7.83-3,8.77-8.57,10.31-12.61,11.32-15.73,2.23-6.88-6.06-11.37-12.27-10.47-34.11,5-67.55,31.79-85.22,68.17-2.31,4.76-6.24,12.91-11.15,23.39-6.24-13.2-18.94-45-55.54-61.74-16.12-7.38-32-9.7-48.53-8.79-13.82.74-42.56,2.28-58.05,32.86-.47.42-4.24,3.23-20.55,4.77-10,1-19.29.87-19.39.87h-.09c-4.33,0-7.87,3.07-7.93,6.89-.58,39.64,19.71,56.9,34.93,64.27l0,0c9.17,4.86,20.74,6,31.48,6,5.83,0,11.13-.33,15.08-.68,3,16.57,8.52,83.59-29.15,141.12-24.19,1.58-37.8,15.76-37.8,31.26A26.67,26.67,0,0,0,236,438.6s8.55,14,34.65,14h85.23c4.38,0,7.93-3.13,7.93-7s-3.55-7-7.93-7H268.07c-14.78,0-21.4-7.89-21.4-15.71,0-9.95,9.87-17,25.05-17.4,7,1.36,15.39,4.84,18.85,13.53,1.46,3.65,6,5.56,10.11,4.28s6.31-5.26,4.86-8.9c-3.57-9-10.76-15.74-20.7-19.72,35.31-56.79,32.64-122.24,28.79-144.64a55.73,55.73,0,0,0-2.92-10,8.21,8.21,0,0,0-8.52-4c-6.9,1-25.66,2.74-38.65-1.1-.38-.11-.74-.23-1.1-.35-14.21-5.45-23.62-16.18-27.83-31.48,5.15-1,12.61-4.72,17.46-16.79,15-2.09,23.47-5.95,26.53-12,7.31-14.53,17.74-20.44,29.25-23,6-1.3,21.31-3.14,34.36,4.56A20.08,20.08,0,0,1,350.57,166c2.95,7.52.82,15.92-6,23.66-17.68,20-22.15,30.27-20.52,43.58,1,8.38,6.22,15.26,14.62,19.36,11.53,5.63,26.63,5.82,38.15-.45,12.41-6.75,19.6-18.75,23.09-39a.52.52,0,0,1,0-.11c-3-6.79-7.79-16.12-13.66-22.62.45,5.64,1.38,12.75-.5,20.28-3.8,15.11-6.2,22.7-15.85,28.87-7.47,4.78-17.33,3.85-23.56.81-3.86-1.89-6.06-4.8-6.53-8.64-.89-7.2,0-14,17.27-33.51,10.86-12.32,14.31-27.93,6-41.71a50.58,50.58,0,0,1,6.44,3.45h0s11.06,6.17,22.64,19.31c3.35,3.8,15.12,17.46,25.6,45.16-24,52.46-59.06,134.89-59.06,168.37,0,33,30.46,59.81,67.91,59.81s67.91-26.83,67.91-59.81c0-18.13-12.26-56.79-36.45-114.92-5.53-13.28-11.14-26.25-16.39-38.09l-8.06,20.19c21.18,48.93,45,110,45,132.82,0,25.28-23.35,45.84-52.05,45.84s-52-20.56-52-45.84c0-35.39,45.11-135.21,60.29-168.21v0c8.46-18.41,15-32,17.15-36.39C463.28,165,486,140,513.71,131c-20.7,17.46-13.29,26.6-5.72,26.6H528.5c12.75.92,26,2.18,34.79,19a30,30,0,0,0,18.44,17.14c-1.85,4.09-3.28,11.13,5.93,14.8-7,14.5-22.27,28-55.38,25.11-4.38-.39-8.25,2.42-8.68,6.25s2.74,7.27,7.1,7.65l.95.07c-4.09,22.28-2.61,51.44,4.14,79.24,7,28.89,18.88,52.93,33.89,69C561.19,400,555,406.29,551.76,414.4c-1.81,4.56,2.06,9.3,7.49,9.3a7.93,7.93,0,0,0,7.48-4.68c3.45-8.65,11.81-12.13,18.75-13.51,32.79,1.36,31.37,33.09,2.94,33.09H497.47c-4.38,0-7.93,3.13-7.93,7s3.55,7,7.93,7h90.95C613.51,452.57,620.45,438.6,620.45,438.6Z" transform="translate(-216.21 -114.36)"/></g></svg>